<?xml version="1.0" encoding="utf-8"?>
<!-- Generator: Adobe Illustrator 26.5.0, SVG Export Plug-In . SVG Version: 6.00 Build 0)  -->
<svg version="1.1" id="SWISS_Logo" xmlns="http://www.w3.org/2000/svg" xmlns:xlink="http://www.w3.org/1999/xlink" x="0px" y="0px"
	 viewBox="0 0 611.6 141.7" style="enable-background:new 0 0 611.6 141.7;" xml:space="preserve">
<style type="text/css">
	.st0{fill:#CC0000;}
	.st1{fill:#FFFFFF;}
</style>
<path id="Type_1_" class="st0" d="M447.3,116.1h-23.6V25.4h23.6V116.1z M391.5,25.4l-15.2,60.8l-17.7-60.8h-22.8l-17.7,60.8
	l-15.2-60.8h-23l25,90.7h24.3l18-62.2l18,62.2h24.3l25.1-90.7H391.5z M277.9,90.4c0-17.4-9.2-23.2-29.4-29.8
	c-9.5-3.1-18.4-5.5-18.4-12.9c0-6.5,6.6-8.6,11.5-8.6c4.2,0,12,0.9,12.7,10.5h22.3c-0.4-18.4-15.3-26.4-34.5-26.4
	c-11.9,0-21.8,3.4-28,9.5c-4.3,4.3-7,10.5-7,17c0,16.9,11.3,23.7,24,27.5c14.3,4.4,23.8,7,23.8,14.9c0,5.3-4.2,10.5-12.4,10.5
	c-10.5,0-14.3-6.3-14.5-12.4h-22.5c0,20.9,17.6,28.5,37.1,28.5C267.4,118.8,277.9,104.7,277.9,90.4 M530.6,90.4
	c0-20-14.6-25.3-32.1-30.5c-8.5-2.5-16.1-4.7-16.1-12.1c0-6.5,6.6-8.6,11.5-8.6c4.2,0,12,0.9,12.6,10.5h22.3
	c-0.4-18.4-15.3-26.4-34.6-26.4c-11.9,0-21.8,3.4-28,9.5c-4.3,4.3-7,10.5-7,17c0,16.9,11.3,23.7,24,27.5c14.3,4.4,23.8,7,23.8,14.9
	c0,5.3-4.2,10.5-12.4,10.5c-10.5,0-14.3-6.3-14.5-12.4h-22.5c0,20.9,17.6,28.5,37.1,28.5C519.5,118.8,530.6,104.7,530.6,90.4
	 M611.6,90.4c0-20-14.6-25.3-32.2-30.5c-8.5-2.5-16.1-4.7-16.1-12.1c0-6.5,6.6-8.6,11.5-8.6c4.2,0,12,0.9,12.7,10.5h22.3
	c-0.4-18.4-15.4-26.4-34.6-26.4c-11.9,0-21.8,3.4-28,9.5c-4.3,4.3-6.9,10.5-6.9,17c0,16.9,11.3,23.7,24,27.5
	c14.3,4.4,23.8,7,23.8,14.9c0,5.3-4.2,10.5-12.4,10.5c-10.5,0-14.3-6.3-14.5-12.4h-22.5c0,20.9,17.6,28.5,37.1,28.5
	C600.6,118.8,611.6,104.7,611.6,90.4"/>
<polygon id="Tailfin_1_" class="st0" points="155.1,141.7 0,141.7 113.7,0 190,0 "/>
<polygon id="Cross_1_" class="st1" points="131.4,57.8 131.4,27.3 105.2,27.3 105.2,57.8 74.7,57.8 74.7,83.9 105.2,83.9 
	105.2,114.5 131.4,114.5 131.4,83.9 131.4,83.9 161.9,83.9 161.9,57.8 "/>
</svg>
